<svg xmlns:dc="http://purl.org/dc/elements/1.1/" xmlns:cc="http://creativecommons.org/ns#" xmlns:rdf="http://www.w3.org/1999/02/22-rdf-syntax-ns#" xmlns:svg="http://www.w3.org/2000/svg" xmlns="http://www.w3.org/2000/svg" xmlns:sodipodi="http://sodipodi.sourceforge.net/DTD/sodipodi-0.dtd" xmlns:inkscape="http://www.inkscape.org/namespaces/inkscape" width="166.29921999999976" height="142.3501399999999" version="1.0" id="svg2" inkscape:version="0.91 r13725" sodipodi:docname="USA counties.svg">
  <defs id="defs9439"/>
  <sodipodi:namedview pagecolor="#ffffff" bordercolor="#666666" borderopacity="1" objecttolerance="10" gridtolerance="10" guidetolerance="10" inkscape:pageopacity="0" inkscape:pageshadow="2" inkscape:window-width="798" inkscape:window-height="828" id="namedview9437" showgrid="false" showguides="true" inkscape:zoom="0.64950808" inkscape:cx="494.98999" inkscape:cy="313.535" inkscape:window-x="-7" inkscape:window-y="0" inkscape:window-maximized="0" inkscape:current-layer="svg2"/>
  <metadata id="metadata4">
    <rdf:RDF>
      <cc:Work>
        <dc:format>image/svg+xml</dc:format>
        <dc:type rdf:resource="http://purl.org/dc/dcmitype/StillImage"/>
        <dc:title/>
        <cc:license rdf:resource="http://creativecommons.org/publicdomain/zero/1.0/"/>
        <dc:date>2019-10-06</dc:date>
        <dc:creator>
          <cc:Agent>
            <dc:title>U.S. Census Bureau, Abe.suleiman, Lokal_Profil</dc:title>
          </cc:Agent>
        </dc:creator>
        <dc:source>https://commons.wikimedia.org/wiki/File:Usa_counties_large.svg</dc:source>
      </cc:Work>
      <cc:License rdf:about="http://creativecommons.org/publicdomain/zero/1.0/">
        <cc:permits rdf:resource="http://creativecommons.org/ns#Reproduction"/>
        <cc:permits rdf:resource="http://creativecommons.org/ns#Distribution"/>
        <cc:permits rdf:resource="http://creativecommons.org/ns#DerivativeWorks"/>
      </cc:License>
    </rdf:RDF>
  </metadata>
  <style id="style6">
  /*
   * Below are Cascading Style Sheet (CSS) definitions in use in this file,
   * which allow easily changing how counties are displayed.
   *
   *
   * For the U.S. Census county codes (FIPS codes) used in this file to identify individual counties, see this link:
   * https://www2.census.gov/geo/docs/reference/codes/files/national_county.txt
   *
   * The county codes used in this file combine the 2-digit state code, which is in the second column of the file
   * linked above, and the 3-digit county code, which is in the third column of the file linked above. Each value
   * for the "id" attribute for each county is in the following form: "c[state_code][county-code]". For example,
   * for Loving Country in Texas, the state code is "48" and the county code is "301", so the id name for the
   * county is "c48301".
   *
   * County codes used in this file can also be found on Wikimedia Commons at this link:
   * https://commons.wikimedia.org/wiki/File_talk:Usa_counties_large.svg/county_codes
   *
   * Examples:
   *
   * To color two counties red (in this case Loving County and Dallas County in Texas) simply
   * go to the CSS insertion point and add:
   *
   * #c48301, #c48113 {fill:red}
   *
   * To color an entire state's counties (in the case New Mexico, with "35" being the state code) a green,
   * go to the CSS insertion point and add:
   *
   * path[id*='c35'] {fill:#34A853}
   *
   */
  #counties {fill:#d0d0d0;stroke:#000;stroke-width:.17829;} 
  #borders {fill:none;stroke:#221e1f;stroke-width:.89143;} 
  #separator {fill:none;stroke:#a9a9a9;stroke-width:2.3177309;}
 </style>
  <g id="counties" transform="translate(-688.0261200000002,-457.591)" style="fill:#d0d0d0;stroke:#ffffff;stroke-width:0.17828999">
    <path id="c12005" d="m 732.96,472.32 0.82903,8.356 0.73276,6.317 -2.0681,-0.628 -0.44928,-0.185 -0.14442,-0.09 -0.54555,-0.388 -0.68997,-0.635 -4.3502,-2.523 -0.31913,-0.174 -0.22642,-0.129 -0.21573,-0.121 -0.34766,-0.169 -0.75237,-0.385 -0.31557,-0.154 -0.25673,-0.121 -0.30666,-0.127 -0.36905,-0.171 -0.32805,-0.117 -1.1892,-0.435 -0.23356,-2.757 0.48851,-0.538 2.1305,-0.924 6.019,-0.579 1.1963,-0.13 -0.29596,-2.98 1.0038,-0.112 1.0038,-0.1" inkscape:connector-curvature="0" style="stroke:#ffffff">
      <title id="title973">Bay, FL</title>
    </path>
    <path id="c12063" d="m 729.82,462.72 9.4974,-1.156 3.4695,6.283 -1.0519,2.555 -3.2377,0.353 -1.4322,0.0835 0.0344,0.96348 -1.4958,0.247 -2.644,0.275 -1.0038,0.1 -0.49742,-4.981 -1.519,-0.854 -1.8809,0.187 1.5654,-4.019 0.19611,-0.03" inkscape:connector-curvature="0" style="stroke:#ffffff">
      <title id="title976">Jackson, FL</title>
    </path>
    <path id="c12015" d="m 820.18,542.29 0.83617,5.946 -10.153,1.3924 0.0357,-0.62041 -0.22464,-1.262 -0.17171,-0.71255 -0.57678,-0.0481 -0.15962,-0.81935 0.54619,-0.21404 -0.0713,-0.248 -0.29774,-0.146 -0.64183,0.114 -0.1765,0.103 -0.96632,0.854 -0.10162,0.159 0.94506,1.8387 0.007,1.0794 -2.5056,0.23492 -2.644,-3.216 2.4604,-0.344 -0.18542,-1.35 -0.0945,-0.627 4.0403,-0.56798 z" inkscape:connector-curvature="0" style="stroke:#ffffff">
      <title id="title979">Charlotte, FL</title>
    </path>
    <path id="c12071" d="m 821.01,548.24 -10.154,1.3941 -0.28516,2.5668 -0.8459,-0.82923 -1.1211,0.24124 0.16523,0.53112 0.90592,0.76383 1.0844,2.622 0.0456,0.69007 0.71563,-0.14332 0.0932,-0.50623 0.30822,-0.29869 0.89886,0.28856 0.0524,0.40385 0.78234,0.13105 1.4329,0.91822 1.043,0.96485 0.65039,1.0312 0.58789,0.21289 3.3125,-0.5293 -0.47219,-2.3278 2.0777,-0.33231 -0.34578,-2.0332 z m -12.008,1.4707 -2.5059,0.23437 0.01,0.0195 0.0469,0.0899 0.0977,0.29687 0.0957,0.3125 0.0809,0.62226 0.24032,-0.0701 -0.0419,-0.56194 0.13086,-0.44336 0.1289,-0.22071 0.0547,0 0.23437,0.21289 0.88282,-0.14453 0.0586,-0.0996 z m -2.1395,2.0525 0.24518,0.77565 2.123,3.9121 0.1621,0.28321 0.0937,0.0898 0.0977,0.0801 1.0508,0.5625 0.62695,0.16992 0.32422,0.0195 0.16016,-0.0195 0.23047,-0.11328 0.92383,-0.75586 0,-0.0508 -1.0586,-0.20703 -0.2832,0.13476 -0.19922,0.2793 -1.3262,-0.32031 -0.38477,-0.2168 -0.27343,-0.25781 -1.9344,-3.6209 -0.1695,-0.97276 z" inkscape:connector-curvature="0" style="stroke:#ffffff">
      <title id="title982">Lee, FL</title>
    </path>
    <path id="c12051" d="m 821.01,548.24 8.0746,-1.223 4.6301,-0.745 0.53843,-4.47 2.3462,14.031 0.28705,1.664 -7.9694,1.404 -0.65788,-3.792 -0.33875,-2.121 -5.978,1.011 -0.93244,-5.759" inkscape:connector-curvature="0" style="stroke:#ffffff">
      <title id="title985">Hendry, FL</title>
    </path>
    <path id="c12021" d="m 836.89,557.5 1.15,6.257 0.62757,3.892 -9.738,1.598 -0.14441,-0.289 -0.0963,-0.103 -0.96631,-0.541 -0.5206,-0.215 -0.15333,-0.05 -2.0022,-0.427 -0.24782,0 -2.4015,0.448 -0.19434,0.13 -0.16937,0.211 -0.0232,0.24 -0.0571,0.433 -0.0784,0.275 -0.14441,-0.02 -0.1141,-0.114 -1.3086,-1.849 -1.8078,-3.084 -0.21929,-0.845 -0.14263,-0.571 -0.5313,-1.863 -0.44928,-1.262 -0.34588,-0.706 -0.025,-0.04 0.58657,0.214 3.3126,-0.529 -0.47174,-2.3278 2.0781,-0.33223 -0.34588,-2.034 5.978,-1.011 0.33875,2.121 0.65788,3.793 7.9694,-1.405" inkscape:connector-curvature="0" style="stroke:#ffffff">
      <title id="title988">Collier, FL</title>
    </path>
    <path id="c12087" d="m 838.67,567.64 -9.7383,1.5957 0.30078,1.7754 0.69726,0.2168 1.4531,1.416 1.5098,2.2969 -0.26953,0.60547 1.1406,0.72265 0.58203,1.6621 0.86914,0.60352 0.0137,0.22461 -0.0469,0.15234 -0.27149,-0.0605 -0.11914,0.0605 -0.13867,0.2168 -0.0488,0.19141 -0.0879,0.8125 -0.0312,1.0117 0.0547,0.53125 0.85351,1.2051 0.1836,0.14453 0.91601,0.5293 0.33594,0.13867 1.6641,-0.39258 1.6719,-0.66211 1.2539,-1.0117 -0.0156,0 -0.2168,-0.3125 -0.93359,-3.7832 z m 14.256,8.043 -1.0195,1.6367 -1.0117,0.61718 0.57812,0.39453 0.0469,0.95899 -0.91406,0.84961 0.23242,0.59375 -0.35547,0.52344 -0.65235,0.0586 0.32227,0.81836 -0.40625,0.33398 -0.82226,-0.44922 -0.0703,0.29102 0.6211,0.24219 -0.0312,0.16211 -0.39063,1.082 -0.625,0.75586 -0.44531,-0.0527 -0.0215,0.77735 -0.49414,0.38281 -0.45703,0.40039 -0.6582,1.0059 -0.01,0.10547 0,0.0195 0.0508,0.0508 1.6328,-1.5586 0.10156,-0.11914 1.0352,-1.4746 0.80468,-1.2988 1.4551,-1.7207 0.29883,-0.59375 0.12695,-0.36329 -0.14843,-0.32812 0.0371,-0.14453 1.2461,-3.1992 0.29492,-0.56055 0.12891,-0.0898 0,-0.006 z m -7.3301,11.85 -1.7891,1.3555 -0.99024,0.98829 -0.0898,0.10547 0.0176,0.0195 0.0859,-0.0195 1.0156,-0.3711 0.83594,-0.72266 0.84179,-0.7539 0.23438,-0.49805 z m -4.0332,3.1211 -2.459,1.3672 -1.7754,1.0039 0.0391,0.0703 -0.16406,0.19922 0.45313,0.26367 0.70898,-0.33594 1.2109,-0.82813 0.91016,-0.82812 0,-0.002 1.0996,-0.51953 0.10547,-0.12891 -0.11328,-0.24219 z m -8.7344,1.9531 -0.65039,0.3496 -0.15039,0.2461 0.67969,0.17773 0.99414,0.17383 -0.0371,-0.44531 z m -1.8086,0.72656 -0.42969,0.42187 -0.43359,-0.3164 -0.0176,0.8457 -0.46875,-0.0176 -0.59375,0.21875 -0.41406,0.55274 -0.49805,0.0703 -0.23828,0.26562 -0.0156,0.24219 -1.0039,1.0059 -0.79492,0.66797 -0.30469,0.17383 -0.73047,0.33984 -0.0918,-0.0312 -0.11914,-0.11914 -0.18359,0.0195 -0.95508,0.24024 -0.30664,0.42187 -0.043,0.14453 0.0898,0.37696 0.0547,0.0312 0.50977,-0.11914 1.416,-0.0703 1.3535,-0.82422 1.9277,-1.1191 0.60938,-0.16211 -0.0117,-0.9375 0.44336,-0.0898 0.004,0 0.10938,0.44726 2.0938,-0.1621 1.2441,-0.61133 0.37891,-0.24219 -0.0611,-0.20766 -0.26777,-0.21226 -0.1164,-0.4707 -0.98437,-0.28907 -0.43555,-0.13476 z m 3.0247,1.6343 0.84898,-0.22801 -0.0954,-0.36723 -0.49022,0.003 z m -17.005,3.9692 -0.7207,0.0449 -0.34375,0.54882 0.20312,0.41016 1.0039,-0.15039 z" inkscape:connector-curvature="0" style="stroke:#ffffff">
      <title id="title991">Monroe, FL</title>
    </path>
    <path id="c12086" d="m 853.4,575.79 -0.48138,-0.101 0.21751,-1.063 0.78625,-2.644 0.15333,-0.282 0.0963,0 0.15333,0.788 -0.36192,1.689 -0.56339,1.613 m -15.365,-12.038 3.8879,-0.69618 0.17886,0.55218 4.9564,-0.811 2.8531,-0.30139 0.0386,-0.45231 1.3693,-0.3073 0.80229,-0.152 1.503,-0.299 0.0196,0.06 0.20682,1.269 0.24068,1.68 0.0392,0.522 0.0499,1.043 -0.11411,0.522 -0.0981,0.236 -0.12801,0.45044 -0.0153,1.6022 -0.47958,-0.34163 -0.0364,-1.3767 -0.19827,-0.2973 -0.26386,0.08 -0.60261,0.367 -0.20325,0.227 -0.0553,0.176 -1.0608,4.411 -0.0927,0.779 0.0784,0.469 0.57587,1.758 0.13728,0.128 0.21751,0 0.0963,0.114 -0.0321,0.255 -0.39223,0.861 -0.87004,1.302 -0.0481,0.05 -0.54555,0.614 0.0234,0.67882 -0.75447,0.12292 -0.42606,0.46726 -0.37122,0.73066 -1.1285,-0.63698 -0.81061,0.0506 -0.31781,1.3319 -0.83698,0.60762 -0.8822,0.0918 -0.21226,0.60386 -0.55247,0.10239 -0.44805,-0.49888 -1.9208,-0.25299 -0.016,0 -0.21751,-0.312 -0.93423,-3.783 -1.5814,-9.892 -0.62757,-3.892" inkscape:connector-curvature="0" style="stroke:#ffffff">
      <title id="title994">Miami-Dade, FL</title>
    </path>
    <path id="c12011" d="m 836.6,555.83 11.981,-1.979 0.98058,-0.159 3.6406,-0.304 0.42432,7.896 -1.503,0.299 -0.80229,0.152 -1.3693,0.3073 -0.0386,0.45231 -2.8531,0.30139 -4.9564,0.811 -0.17886,-0.55218 -3.8879,0.69618 -1.15,-6.257 L 836.6,555.83" inkscape:connector-curvature="0" style="stroke:#ffffff">
      <title id="title997">Broward, FL</title>
    </path>
    <path id="c12099" d="m 834.26,541.8 10.221,-1.656 0.2086,-0.03 4.7442,-0.747 1.2177,-0.528 0.36192,0.795 0.39402,0.845 0.34409,0.745 0.53843,1.357 0.33874,2.147 0.27992,1.991 0.098,0.981 0.23178,5.329 -0.0303,0.362 -3.6406,0.304 -0.98058,0.159 -11.981,1.979 -2.3462,-14.031" inkscape:connector-curvature="0" style="stroke:#ffffff">
      <title id="title1000">Palm Beach, FL</title>
    </path>
    <path id="c12115" d="m 809.51,539.88 0.56517,3.959 -4.04,0.571 0.0945,0.627 0.18542,1.35 -2.4604,0.344 -3.6299,-5.495 -0.21573,-0.299 -0.30844,-0.414 -0.19076,-0.269 -0.91818,-1.132 -0.5206,-0.528 -1.0929,-1.095 7.9605,-1.06 0.55625,4.002 4.015,-0.561" inkscape:connector-curvature="0" style="stroke:#ffffff">
      <title id="title1003">Sarasota, FL</title>
    </path>
    <path id="c12027" d="m 819.1,535.37 1.0751,6.921 -10.1,1.549 -0.98057,-6.901 4.0097,-0.564 2.2108,-0.41 3.785,-0.595" inkscape:connector-curvature="0" style="stroke:#ffffff">
      <title id="title1006">DeSoto, FL</title>
    </path>
    <path id="c12043" d="m 832.18,536.33 1.5164,1.1893 0.56425,4.2837 -0.53843,4.47 -4.6301,0.745 -8.0746,1.223 -0.83617,-5.946 6.035,-0.909 -0.3227,-1.994 1.9198,-0.28424 -0.22247,-2.0298 4.5891,-0.748" inkscape:connector-curvature="0" style="stroke:#ffffff">
      <title id="title1009">Glades, FL</title>
    </path>
    <path id="c12085" d="m 847.11,532.68 3.5426,6.164 -1.2177,0.528 -4.7442,0.747 -0.2086,0.03 -10.221,1.656 3.5324,-4.3473 -0.19667,-1.8877 5.3254,-0.877 2.6529,-0.44 -0.20147,-1.295 1.7365,-0.28" inkscape:connector-curvature="0" style="stroke:#ffffff">
      <title id="title1012">Martin, FL</title>
    </path>
    <path id="c12111" d="m 836.27,527.64 7.2545,-1.175 3.5854,6.206 -1.7365,0.28 0.20147,1.295 -2.6529,0.44 -5.3254,0.877 -1.3265,-7.923" inkscape:connector-curvature="0" style="stroke:#ffffff">
      <title id="title1015">St. Lucie, FL</title>
    </path>
    <path id="c12061" d="m 831.48,522.31 7.2634,-1.164 1.0038,-0.933 0.10519,-0.144 3.6709,6.402 -7.2545,1.175 -1.979,0.314 -0.31913,-1.904 -1.9291,0.328 -0.56161,-4.074" inkscape:connector-curvature="0" style="stroke:#ffffff">
      <title id="title1018">Indian River, FL</title>
    </path>
    <path id="c12093" d="m 826.59,527.23 5.4484,-0.852 1.9291,-0.328 0.31913,1.904 1.979,-0.314 1.3265,7.923 0.19667,1.8877 -3.5324,4.3473 -0.56425,-4.2837 -1.5164,-1.1893 -1.7365,-1.733 -2.0236,-1.562 -2.8995,-2.6809 0.67091,-1.0941 0.40293,-2.025" inkscape:connector-curvature="0" style="stroke:#ffffff">
      <title id="title1021">Okeechobee, FL</title>
    </path>
    <path id="c12055" d="m 818.05,528.48 8.5417,-1.245 -0.40293,2.025 -0.67091,1.0941 2.8995,2.6809 2.0236,1.562 1.7365,1.733 -4.5891,0.748 0.22247,2.0298 -1.9198,0.28424 0.3227,1.994 -6.035,0.909 -1.0751,-6.921 -1.0537,-6.894" inkscape:connector-curvature="0" style="stroke:#ffffff">
      <title id="title1024">Highlands, FL</title>
    </path>
    <path id="c12049" d="m 808.1,529.98 9.9484,-1.504 1.0537,6.894 -3.785,0.595 -2.2108,0.41 -4.0097,0.564 -0.99663,-6.959" inkscape:connector-curvature="0" style="stroke:#ffffff">
      <title id="title1027">Hardee, FL</title>
    </path>
    <path id="c12081" d="m 797.96,531.49 10.141,-1.503 0.99663,6.959 0.4154,2.942 -4.015,0.561 -0.55625,-4.002 -7.9605,1.06 -1.1589,-1.092 -0.65075,-1.199 0.53129,-0.247 0.69354,-0.451 1.3461,-2.161 0.0802,-0.17 0.13728,-0.697" inkscape:connector-curvature="0" style="stroke:#ffffff">
      <title id="title1030">Manatee, FL</title>
    </path>
    <path id="c12103" d="m 794.3,519.83 0.72207,4.67 -1.3586,0.376 -0.0713,0.07 -0.0481,0.182 0.11945,0.258 0.23356,0.152 0.53472,0.23267 1.0017,-0.16581 0.0807,0.63682 0.57756,0.25132 0.82012,-0.351 0.1034,0.578 -0.5967,0.33081 0.33284,0.65819 -0.71271,1.0947 0.20445,1.0647 -0.38377,0.64114 -1.3746,0.3784 0.0447,0.73734 0.2767,0.28472 0.21457,0.62714 -0.67291,0.19272 -0.31523,-2.1059 -0.87041,-1.335 -1.342,-1.1695 -0.88959,-1.4628 0.91795,-1.5197 0.0143,-0.05 0.0963,-1.189 0.0571,-1.036 -0.19255,-1.631 -0.16759,-0.376 -0.10519,-0.155 -0.35479,-0.41 3.104,-0.457" inkscape:connector-curvature="0" style="stroke:#ffffff">
      <title id="title1033">Pinellas, FL</title>
    </path>
    <path id="c12057" d="m 794.3,519.83 11.002,-1.553 1.002,-0.144 1.0697,6.919 0.72206,4.935 -10.141,1.503 2.0414,-3.045 0.0392,-0.09 0.45106,-1.095 0.10341,-0.586 -0.32983,-0.997 -0.28883,-0.383 -0.90162,-0.0407 -0.69691,-0.35698 0.12009,1.4504 0.30933,0.34708 0.0614,0.61371 -0.81598,0.0628 -0.81639,-0.62509 0.26375,-0.45113 -0.56881,-2.0791 -0.73098,0 -0.60261,0.114 -0.57051,0.161 -0.72207,-4.67" inkscape:connector-curvature="0" style="stroke:#ffffff">
      <title id="title1036">Hillsborough, FL</title>
    </path>
    <path id="c12053" d="m 792.74,508.02 4.5624,-0.662 0.10697,0.651 3.1004,-0.49 0.041,0.451 0.27278,0.371 0.81121,0.907 0.41719,0.25 2.5834,0.64 0.67392,1.053 -3.9883,0.58 0.14442,0.989 -7.7698,1.149 -0.77198,0.112 -0.18364,-6.001" inkscape:connector-curvature="0" style="stroke:#ffffff">
      <title id="title1039">Hernando, FL</title>
    </path>
    <path id="c12101" d="m 805.31,511.19 0.53665,3.768 0.11741,1.2738 -0.93778,0.219 0.28372,1.8262 -11.002,1.553 -3.104,0.457 1.7205,-6.267 0.77198,-0.112 7.7698,-1.149 -0.14442,-0.989 3.9883,-0.58" inkscape:connector-curvature="0" style="stroke:#ffffff">
      <title id="title1042">Pasco, FL</title>
    </path>
    <path id="c12097" d="m 813.74,512.96 15.95,-2.5 0.39401,2.274 0.56161,3.649 -0.12837,0.03 0.9574,5.905 0.56161,4.074 -5.4484,0.852 -0.17651,-0.802 -0.14441,-0.565 -1.0466,-1.559 -0.60082,-0.857 -2.1098,-0.34584 -1.5371,-2.4552 -1.2522,-0.46915 -1.0593,-1.1763 1.4816,0.34749 0.76372,-1.2627 -2.1936,0.15168 -0.26222,-1.2003 -1.3551,0.14978 -0.13871,-1.2755 -0.87803,-1.2434 -2.0352,0.26741 -0.30309,-1.984" inkscape:connector-curvature="0" style="stroke:#ffffff">
      <title id="title1045">Osceola, FL</title>
    </path>
    <path id="c12105" d="m 813.74,512.96 0.30309,1.984 2.0352,-0.26741 0.87803,1.2434 0.13871,1.2755 1.3551,-0.14978 0.26222,1.2003 2.1936,-0.15168 -0.76372,1.2627 -1.4816,-0.34749 1.0593,1.1763 1.2522,0.46915 1.5371,2.4552 2.1098,0.34584 0.60082,0.857 1.0466,1.559 0.14441,0.565 0.17651,0.802 -8.5417,1.245 -9.9484,1.504 -0.72206,-4.935 -1.0697,-6.919 -1.002,0.144 -0.28372,-1.8262 0.93778,-0.219 -0.11741,-1.2738 0.81892,-0.38933 0.33675,0.35 0.65819,-0.004 0.0474,-1.0001 6.0386,-0.956" inkscape:connector-curvature="0" style="stroke-width:0.178;stroke-miterlimit:4;stroke-dasharray:none;stroke:#000000">
      <title id="title1048">Polk, FL</title>
    </path>
    <path id="c12095" d="m 817.1,502.3 -0.6454,1.858 0.0731,0.508 0.16879,1.1039 2.7082,-0.31047 0.12,0.52358 6.7179,-1.125 2.3669,2.3178 1.0811,3.2822 -15.95,2.5 -1.5136,-9.756 0.19433,-0.183 0.19255,-0.04 0.28169,-0.04 4.204,-0.638" inkscape:connector-curvature="0" style="stroke:#ffffff">
      <title id="title1051">Orange, FL</title>
    </path>
    <path id="c12117" d="m 817.1,502.3 0.60974,-2.262 1.0929,0.857 2.0051,-0.22081 0.59075,0.80781 0.42432,0.07 0.12124,-0.02 0.65966,-0.316 0.19968,-0.449 1.2855,-0.0244 0.19254,1.2614 0.65966,0.829 1.3015,2.016 -6.7179,1.125 -0.12,-0.52358 -2.7082,0.37476 -0.16879,-1.1682 -0.0731,-0.508 0.6454,-1.858" inkscape:connector-curvature="0" style="stroke:#ffffff">
      <title id="title1054">Seminole, FL</title>
    </path>
    <path id="c12069" d="m 810.85,491.87 0.8113,1.4623 1.8843,0.60255 0.98425,1.6312 1.3532,0.898 0.84151,0.459 0.81121,0.625 0.0481,0.07 0.24247,1.173 -0.11232,1.247 -0.60974,2.262 -4.204,0.638 -0.28169,0.04 -0.19255,0.04 -0.19433,0.183 1.5136,9.756 -6.0386,0.956 -1.9986,-13.925 5.8995,-0.891 0.0374,-2.38 -0.79516,-4.844" inkscape:connector-curvature="0" style="stroke:#ffffff">
      <title id="title1057">Lake, FL</title>
    </path>
    <path id="c12119" d="m 798.57,501.03 7.135,-1.045 1.9986,13.925 -0.0474,1.0001 -0.65819,0.004 -0.33675,-0.35 -0.81892,0.38933 -0.53665,-3.768 -0.67392,-1.053 -2.5834,-0.64 -0.41719,-0.25 -0.81121,-0.907 -0.27278,-0.371 -0.041,-0.451 0.0874,-0.997 0.0731,-0.208 0.2496,-0.434 0.40114,-0.545 0.37084,-0.1 0.0713,-0.07 0.21037,-0.731 -0.016,-0.1 -2.5406,-2.282 -0.8433,-1.02" inkscape:connector-curvature="0" style="stroke:#ffffff">
      <title id="title1060">Sumter, FL</title>
    </path>
    <path id="c12017" d="m 793.82,499.76 1.2819,-0.36098 3.4677,1.632 0.8433,1.02 2.5406,2.282 0.016,0.1 -0.21037,0.731 -0.0713,0.07 -0.37084,0.1 -0.40114,0.545 -0.2496,0.434 -0.0731,0.208 -0.0874,0.997 -3.1004,0.49 -0.10697,-0.651 -4.5624,0.662 -0.32983,-3.402 -0.12837,-0.738 -0.13728,-0.282 -2.6511,-2.032 0.13371,-0.241 0.20325,-0.242 0.52238,-0.507 0.37797,-0.1 0.30487,0 1.2373,0.28 1.182,-0.697 0.35301,-0.259 0.016,-0.05" inkscape:connector-curvature="0" style="stroke:#ffffff">
      <title id="title1063">Citrus, FL</title>
    </path>
    <path id="c12075" d="m 789.74,488.3 0.0728,0.57163 2.0566,-0.25939 0.34089,1.3222 2.7535,-0.52747 0.94849,6.1 -2.6422,0.394 0.55269,3.856 -0.016,0.05 -0.35301,0.259 -1.182,0.697 -1.2373,-0.28 -0.30487,0 -0.37797,0.1 -0.52238,0.506 -0.20325,0.243 -0.13371,0.241 0.0392,-0.771 -0.20681,-0.611 -1.237,-0.55142 0.51175,-0.64113 -0.47282,-0.77745 -0.48316,-0.209 -3.2233,0.23217 -0.50273,0.83702 -0.6848,-0.086 -0.87541,-2.4772 -1.872,-0.52905 1.6064,-1.432 0.85221,-1.535 0.43324,-1.455 0.7078,-3.07 5.6553,-0.182" inkscape:connector-curvature="0" style="stroke:#ffffff">
      <title id="title1066">Levy, FL</title>
    </path>
    <path id="c12083" d="m 794.96,489.41 3.5675,-0.504 0.36192,0.401 -0.041,0.248 1.4637,0.644 1.478,-0.617 0.25673,-0.163 0.0161,-0.05 -0.10163,-0.673 0.51169,-0.611 0.41897,-0.225 1.3496,-0.531 2.0574,-0.36212 0.12352,0.80486 1.2978,-0.2354 0.26413,1.3817 0.8115,-0.11536 0.0946,1.285 0.94942,-0.12967 0.55797,0.0968 0.186,0.73901 -0.67807,0.11815 0.93957,0.958 0.79516,4.844 -0.0374,2.38 -5.8995,0.891 -7.135,1.045 -3.4677,-1.632 -1.2819,0.36098 -0.55269,-3.856 2.6422,-0.394 -0.94849,-6.099" inkscape:connector-curvature="0" style="stroke:#ffffff">
      <title id="title1069">Marion, FL</title>
    </path>
    <path id="c12127" d="m 809.91,490.91 0.67808,-0.11937 3.7456,-1.3697 0.2225,-0.93892 0.3679,-0.0588 0.44331,3.1218 1.6634,-0.28 0.0802,-0.02 3.5515,-0.641 -0.4582,-2.461 0.84508,-1.333 1.5154,2.524 1.2248,1.888 0.94671,1.471 0.56873,0.77 1.6812,2.06 3.7137,4.482 -4.7014,0.781 0.70602,3.983 -0.4582,0.08 -1.3015,-2.017 -0.65966,-0.829 -0.19254,-1.2614 -1.2855,0.0244 -0.19968,0.449 -0.65966,0.316 -0.12124,0.02 -0.42432,-0.07 -0.59075,-0.80781 -2.0051,0.22081 -1.0929,-0.857 0.11232,-1.247 -0.24247,-1.173 -0.0481,-0.07 -0.81121,-0.625 -0.84151,-0.459 -1.3532,-0.898 -0.98425,-1.6312 -1.8843,-0.60255 -0.8113,-1.4623 -0.93957,-0.958" inkscape:connector-curvature="0" style="stroke:#ffffff">
      <title id="title1072">Volusia, FL</title>
    </path>
    <path id="c12009" d="m 826.24,504.86 0.4582,-0.08 -0.70602,-3.982 4.7014,-0.781 3.6709,3.888 0.0392,0.05 0.15689,0.159 0.0285,0.05 1.4637,2.669 0,0.185 -0.6757,0.433 -0.18542,0.257 -0.21573,0.426 -0.016,0.113 -0.0107,0.03 -0.0642,0.344 -0.0463,0.627 0.0321,0.637 0.0642,0.568 0.27991,1.199 0.57943,1.75 0.7809,1.778 0.54555,0.993 0.44037,0.677 0.59548,0.91 0.0339,0.06 1.6545,2.266 -0.10519,0.144 -1.0038,0.933 -7.2634,1.164 -0.9574,-5.905 0.12837,-0.03 -0.56161,-3.649 -0.39401,-2.274 -1.0811,-3.2822 -2.3669,-2.3178" inkscape:connector-curvature="0" style="stroke:#ffffff">
      <title id="title1075">Brevard, FL</title>
    </path>
    <path id="c12133" d="m 723.57,470.2 0.11945,-1.528 0.11232,-0.522 1.3746,-0.128 0.36014,0.297 0.0588,0.667 2.307,-0.192 0.2086,-1.582 0,-0.196 -0.0499,-0.246 1.8809,-0.187 1.519,0.854 0.49742,4.981 -1.0038,0.112 0.29596,2.98 -1.1963,0.13 -6.019,0.579 -2.1305,0.924 -0.48851,0.538 0.71315,-1.358 1.6614,-1.1292 -0.97853,-2.2048 -0.31201,-0.346 -0.0945,-0.699 0.91283,-1.587 0.25139,-0.157" inkscape:connector-curvature="0" style="stroke:#ffffff">
      <title id="title1078">Washington, FL</title>
    </path>
    <path id="c12059" d="m 719.12,463.96 10.499,-1.215 -1.5654,4.019 0.0499,0.246 0,0.196 -0.2086,1.582 -2.307,0.192 -0.0588,-0.667 -0.36014,-0.297 -1.3746,0.128 -0.11232,0.522 -0.11945,1.528 -3.7922,0.371 -0.65075,-6.605" inkscape:connector-curvature="0" style="stroke:#ffffff">
      <title id="title1081">Holmes, FL</title>
    </path>
    <path id="c12131" d="m 716.14,464.26 2.9827,-0.296 0.65075,6.605 3.7922,-0.371 -0.25139,0.157 -0.91283,1.587 0.0945,0.699 0.31201,0.346 0.97853,2.2048 -1.6614,1.1292 -0.71315,1.358 0.23356,2.757 -8.1976,-1.68 -1.2534,-14.095 3.9455,-0.401" inkscape:connector-curvature="0" style="stroke:#ffffff">
      <title id="title1084">Walton, FL</title>
    </path>
    <path id="c12091" d="m 712.2,464.66 1.2534,14.095 -7.9712,0.603 -1.0679,-13.991 1.8863,-0.142 5.8995,-0.565" inkscape:connector-curvature="0" style="stroke:#ffffff">
      <title id="title1087">Okaloosa, FL</title>
    </path>
    <path id="c12113" d="m 697.02,466.03 7.3936,-0.66 1.0679,13.991 -2.3124,0.593 -0.18352,-0.6014 -5.9166,1.5584 0.1216,-1.0052 1.2949,-0.32077 0.32173,-2.7424 -2.807,-1.7646 -1.0127,-2.428 -0.30487,-0.826 -0.0642,-0.379 -0.24069,-1.719 0.0624,-0.337 0.36905,-1.36 0.13906,-0.239 0.88074,-0.774 1.191,-0.986" inkscape:connector-curvature="0" style="stroke:#ffffff">
      <title id="title1090">Santa Rosa, FL</title>
    </path>
    <path id="c12033" d="m 688.47,466.84 8.5489,-0.811 -1.191,0.986 -0.88074,0.774 -0.13906,0.239 -0.36905,1.36 -0.0624,0.337 0.24069,1.719 0.0642,0.379 0.30487,0.826 1.0127,2.428 2.807,1.7646 -0.32173,2.7424 -1.2949,0.32077 -0.1216,1.0052 5.9166,-1.5584 0.18352,0.6014 -4.5731,1.423 -0.17115,0.04 -0.11945,0.03 -0.69889,0.179 -1.2052,0.234 -3.0754,0.731 -1.8096,0.523 1.2694,-0.573 0.26565,-2.514 0.19968,-5.022 -0.0321,-0.378 -0.0713,-0.273 -0.24068,-0.394 -0.88431,-0.547 -0.66679,-0.344 -0.32983,-0.06 -0.11054,-0.04 -0.62935,-0.433 -2.0004,-2.181 -0.25852,-0.438 0.44394,-3.078" inkscape:connector-curvature="0" style="stroke:#ffffff">
      <title id="title1093">Escambia, FL</title>
    </path>
    <path id="c12013" d="m 732.96,472.32 2.644,-0.275 1.4958,-0.247 -0.0344,-0.96348 1.4322,-0.0835 3.2377,-0.353 -0.93957,2.147 -0.65966,4.239 -0.93244,3.306 -5.4146,0.586 -0.82903,-8.356" inkscape:connector-curvature="0" style="stroke:#ffffff">
      <title id="title1096">Calhoun, FL</title>
    </path>
    <path id="c12045" d="m 733.79,480.68 5.4146,-0.586 0.14896,3.5159 2.2383,1.4881 0.23355,3.127 0.19453,0.92913 -1.2803,0.62187 -0.29596,-0.05 -1.7526,1.721 -0.18542,0.392 -1.872,0.153 -0.0553,-2.289 -0.0571,-0.249 -0.29596,-0.491 -1.15,-1.449 -0.47603,-0.455 -0.0767,-0.06 -0.73276,-6.317" inkscape:connector-curvature="0" style="stroke:#ffffff">
      <title id="title1099">Gulf, FL</title>
    </path>
    <path id="c12037" d="m 750.99,483.07 4.1701,0.652 0.14441,0.4 0.0571,0.217 0.0481,0.169 0.007,0.03 -0.0178,0.257 -0.11232,0.323 -0.10341,0.07 -0.57764,0.161 -0.9164,-0.12 -0.21751,-0.05 -0.21216,-0.144 -0.1979,-0.33 -1.1571,0.424 -0.4582,0.211 -2.8686,2.216 -1.3015,1.085 -1.1321,0.837 -1.0786,0.69 -2.1591,0.691 -0.86112,0.195 -0.71315,-0.107 -0.58657,0.07 -0.38688,0.114 -1.8578,0.697 0.18542,-0.392 1.7526,-1.721 0.29596,0.05 1.2803,-0.62187 -0.19453,-0.92913 -0.23355,-3.127 0.24069,-1.009 9.1622,-1.014" inkscape:connector-curvature="0" style="stroke:#ffffff">
      <title id="title1102">Franklin, FL</title>
    </path>
    <path id="c12029" d="m 783.69,483.14 0.39401,5.343 -0.7078,3.07 -0.43324,1.455 -0.85221,1.535 -1.6064,1.432 -0.36014,-1.246 -0.69354,-1.052 -0.39401,-0.555 -0.48138,-0.226 -0.47424,0 -0.93244,-0.425 -1.5672,-0.804 -0.45819,-0.256 -0.0481,-0.129 -0.63649,-3.214 1.2238,-0.68995 0.14371,-3.12 7.8838,-1.118" inkscape:connector-curvature="0" style="stroke:#ffffff">
      <title id="title1105">Dixie, FL</title>
    </path>
    <path id="c12041" d="m 784.29,481.61 1.4316,-1.25 3.1254,1.928 0.89143,6.02 -5.6553,0.182 -0.39401,-5.343 0.60082,-1.537" inkscape:connector-curvature="0" style="stroke:#ffffff">
      <title id="title1108">Gilchrist, FL</title>
    </path>
    <path id="c12001" d="m 791.04,479.4 2.2411,0.1 0.55447,0.779 0.2086,0.08 2.5156,0.425 1.1,-0.08 0.22464,-0.128 0.13015,-0.03 0.92353,0.1 0.28169,0.07 1.7597,1.664 0.21751,0.451 -0.0339,0.264 0.79872,5.61 0.10163,0.673 -0.0161,0.05 -0.25673,0.163 -1.478,0.617 -1.4637,-0.644 0.041,-0.248 -0.36192,-0.401 -3.5675,0.505 -2.7535,0.52722 -0.34089,-1.3225 -2.0566,0.25914 -0.0728,-0.57188 -0.89143,-6.02 2.1947,-2.887" inkscape:connector-curvature="0" style="stroke:#ffffff">
      <title id="title1111">Alachua, FL</title>
    </path>
    <path id="c12107" d="m 810.11,478.94 1.8898,4.748 0.58327,3.0922 1.9716,1.7038 -0.2225,0.93892 -3.7455,1.3697 -0.186,-0.7392 -0.55795,-0.0954 -0.94942,0.12967 -0.0946,-1.285 -0.8115,0.11536 -0.26413,-1.3817 -1.2978,0.2354 -0.12352,-0.80486 -2.0574,0.36212 -1.3496,0.531 -0.41897,0.225 -0.51169,0.611 -0.79872,-5.61 0.10519,-0.02 0.47424,-0.239 1.7615,-1.257 0.0874,-0.408 0.13549,-0.164 1.815,-1.298 0.30665,-0.05 4.2593,-0.715" inkscape:connector-curvature="0" style="stroke:#ffffff">
      <title id="title1114">Putnam, FL</title>
    </path>
    <path id="c12035" d="m 812,483.69 4.1086,-0.62094 1.8694,-1.4271 3.0701,5.174 -0.84508,1.333 0.4582,2.461 -3.5515,0.641 -0.0802,0.02 -1.6634,0.28 -0.44331,-3.1218 -0.3679,0.0588 -1.9716,-1.7038 -0.58327,-3.0922" inkscape:connector-curvature="0" style="stroke:#ffffff">
      <title id="title1117">Flagler, FL</title>
    </path>
    <path id="c12109" d="m 807.18,472.85 1.0715,-0.449 0.45463,0 1.3175,0.417 2.0664,-0.353 -0.57943,-3.327 1.1179,-0.189 2.3944,6.216 1.6866,4.025 0.0321,0.08 0.2496,0.512 0.18542,0.401 0.80407,1.464 -1.8694,1.4271 -4.1086,0.62094 -1.8898,-4.747 -0.50356,-2.5091 -1.9984,-1.165 -0.43091,-2.4189" inkscape:connector-curvature="0" style="stroke:#ffffff">
      <title id="title1120">St. Johns, FL</title>
    </path>
    <path id="c12019" d="m 807.18,472.85 0.43091,2.4187 1.9984,1.1647 0.50356,2.5086 -4.2593,0.715 -0.30665,0.05 -1.815,1.297 -0.13549,0.164 -0.0874,0.409 -1.7615,1.257 -0.47424,0.239 -1.4299,-9.635 -0.14442,-0.99 1.9772,-0.288 4.1131,-0.683 0.54734,-0.121 0.61687,-0.08 0.22642,1.576" inkscape:connector-curvature="0" style="stroke:#ffffff">
      <title id="title1123">Clay, FL</title>
    </path>
    <path id="c12007" d="m 798.01,473.71 1.831,-0.273 1.4299,9.635 -0.10519,0.02 0.0339,-0.264 -0.21751,-0.451 -1.7597,-1.664 -0.28169,-0.07 -0.92353,-0.1 -0.13015,0.03 -0.22464,0.128 -1.1,0.08 -2.5156,-0.424 -0.2086,-0.08 -0.55447,-0.779 0.86113,-0.392 1.2462,-0.676 2.127,-2.997 0.58834,-1.148 0.0392,-0.25 -0.1355,-0.322" inkscape:connector-curvature="0" style="stroke:#ffffff">
      <title id="title1126">Bradford, FL</title>
    </path>
    <path id="c12125" d="m 798.01,473.71 0.1355,0.322 -0.0392,0.25 -0.58834,1.148 -2.127,2.997 -1.2462,0.676 -0.86113,0.392 -2.2411,-0.1 -0.92845,-1.2184 1.868,-2.6197 -0.16935,-0.79685 6.1973,-1.052" inkscape:connector-curvature="0" style="stroke:#ffffff">
      <title id="title1129">Union, FL</title>
    </path>
    <path id="c12121" d="m 784.55,471.15 1.1731,9.208 -1.4316,1.25 -1.2284,-1.458 -0.76307,-0.756 -0.32983,-0.241 -2.0236,-1.301 -0.93957,-0.443 -0.9895,-0.105 -0.0802,0.227 -0.30666,0.199 -0.61152,-0.139 -0.25674,-0.189 -0.70601,-1.633 -0.27456,-1.485 0.0178,-0.123 0.0802,-0.06 1.1179,-3.036 0.16046,-0.685 0.0553,-0.09 0.60261,-0.435 0.73989,-0.24 1.5814,0.03 0.9984,0.192 3.4142,1.304" inkscape:connector-curvature="0" style="stroke:#ffffff">
      <title id="title1132">Suwannee, FL</title>
    </path>
    <path id="c12067" d="m 775.88,474.1 -0.0802,0.06 -0.0178,0.123 0.27456,1.485 0.70601,1.633 0.25674,0.189 0.61152,0.139 0.30666,-0.199 0.0802,-0.227 0.9895,0.105 0.93957,0.443 2.0236,1.301 0.32983,0.241 0.76307,0.756 1.2284,1.458 -0.60082,1.537 -7.8838,1.118 -0.6668,0.1 -0.57943,-1.633 -1.0358,-8.299 2.3552,-0.323" inkscape:connector-curvature="0" style="stroke:#ffffff">
      <title id="title1135">Lafayette, FL</title>
    </path>
    <path id="c12123" d="m 773.52,474.43 1.0358,8.3 0.57943,1.633 0.6668,-0.1 -0.14371,3.12 -1.2238,0.68995 -0.68462,-0.171 -1.9808,-0.801 -0.21751,-0.187 -0.18541,-0.216 -0.68819,-0.941 0.007,-0.111 -0.13728,-0.435 -0.23356,-0.346 -1.0216,-1.212 -0.9057,-0.628 -0.16224,-0.105 -2.1787,-0.946 -1.1803,-0.337 -1.847,-0.829 -1.2872,-0.756 2.7403,-5.433 6.9104,-0.922 0.12302,1.002 2.0146,-0.271" inkscape:connector-curvature="0" style="stroke:#ffffff">
      <title id="title1138">Taylor, FL</title>
    </path>
    <path id="c12129" d="m 746.88,476.88 9.1693,-1.191 0.2086,0.644 3.2698,-0.394 0.49742,4.063 -3.3429,0.476 -1.8239,0.9 -0.312,0.169 -0.0481,0.778 0.18364,0.829 0.0481,0.06 0.43502,0.51 -4.1701,-0.652 -1.2961,-0.763 -0.62401,-0.435 -0.85399,-1.109 -0.44605,-2.708 -1.146,-0.88298 0.25138,-0.296" inkscape:connector-curvature="0" style="stroke:#ffffff">
      <title id="title1141">Wakulla, FL</title>
    </path>
    <path id="c12077" d="m 747.95,474.71 -1.0768,2.172 -0.25138,0.296 1.146,0.88298 0.44605,2.708 0.85399,1.109 0.62401,0.435 1.2961,0.763 -9.1622,1.014 -0.24069,1.009 -2.2383,-1.4881 -0.14896,-3.5159 0.93244,-3.306 0.65966,-4.239 0.93957,-2.147 1.2089,-0.15767 0.21531,1.4832 2.1124,-0.14856 0.12533,1.2063 1.2393,-0.0582 0.16805,1.1752 0.83041,-0.0592 0.32069,0.866" inkscape:connector-curvature="0" style="stroke:#ffffff">
      <title id="title1144">Liberty, FL</title>
    </path>
    <path id="c12039" d="m 752.34,467.2 1.9701,-0.137 -0.80408,2.17 -0.9057,2.699 -0.0909,0.194 -0.28883,0.257 -0.40114,0.168 -2.6351,1.333 -1.2302,0.82 -0.32069,-0.866 -0.83041,0.0592 -0.16805,-1.1752 -1.2393,0.0582 -0.12533,-1.2063 -2.1124,0.14856 -0.21531,-1.4832 -1.2089,0.15767 1.0519,-2.555 0.025,0 9.5294,-0.642" inkscape:connector-curvature="0" style="stroke:#ffffff">
      <title id="title1147">Gadsden, FL</title>
    </path>
    <path id="c12073" d="m 759.72,466.69 1.334,3.0206 -1.5676,0.48941 -0.41006,2.074 0.45107,3.664 -3.2698,0.394 -0.2086,-0.644 -9.1693,1.191 1.0768,-2.172 1.2302,-0.82 2.6351,-1.333 0.40114,-0.168 0.28883,-0.257 0.0909,-0.194 0.9057,-2.699 0.80408,-2.17 3.8991,-0.275 1.5083,-0.101" inkscape:connector-curvature="0" style="stroke:#ffffff">
      <title id="title1150">Leon, FL</title>
    </path>
    <path id="c12065" d="m 764.93,466.33 2.6119,-0.169 0.1765,0.272 0.17651,1.288 -0.56339,0.747 -1.5743,1.695 -1.1339,3.343 -0.14441,1.107 -2.7403,5.433 -1.7116,-0.05 -0.94849,-7.727 0.41006,-2.074 1.5676,-0.48941 -1.334,-3.0206 5.2078,-0.355" inkscape:connector-curvature="0" style="stroke:#ffffff">
      <title id="title1153">Jefferson, FL</title>
    </path>
    <path id="c12079" d="m 772.57,465.82 0.95027,-0.06 0.8843,0.394 0.92353,3.11 0.55447,1.061 0.12837,0.11 0.98949,0.63 -1.1179,3.036 -2.3552,0.322 -2.0146,0.271 -0.12302,-1.002 -6.9104,0.922 0.14441,-1.107 1.1339,-3.343 1.5743,-1.695 0.56339,-0.747 -0.17651,-1.288 -0.1765,-0.272 5.0277,-0.346" inkscape:connector-curvature="0" style="stroke:#ffffff">
      <title id="title1156">Madison, FL</title>
    </path>
    <path id="c12047" d="m 776.93,465.53 8.8448,-0.608 -0.44929,0.867 -0.007,0.41 0.0802,0.636 0.39223,0.458 1.125,1.188 0.12837,0.183 0.20325,0.55 0.007,0.208 -0.52951,1.375 -0.12302,0.151 -1.0519,0.516 -0.93066,-0.08 -0.0731,-0.233 -3.4142,-1.303 -0.9984,-0.193 -1.5814,-0.03 -0.73989,0.241 -0.60261,0.435 -0.0553,0.09 -0.16046,0.685 -0.98949,-0.63 -0.12837,-0.11 -0.55447,-1.061 -0.92353,-3.109 -0.8843,-0.394 3.416,-0.236" inkscape:connector-curvature="0" style="stroke:#ffffff">
      <title id="title1159">Hamilton, FL</title>
    </path>
    <path id="c12023" d="m 787.87,464.77 2.4586,-0.177 1.4869,10.172 0.16935,0.79685 -1.868,2.6197 0.92845,1.2184 -2.1947,2.887 -3.1254,-1.928 -1.1731,-9.208 0.0731,0.233 0.93066,0.08 1.0519,-0.516 0.12302,-0.151 0.52951,-1.375 -0.007,-0.208 -0.20325,-0.55 -0.12837,-0.183 -1.125,-1.188 -0.39223,-0.458 -0.0802,-0.636 0.007,-0.41 0.44929,-0.867 2.0895,-0.153" inkscape:connector-curvature="0" style="stroke:#ffffff">
      <title id="title1162">Columbia, FL</title>
    </path>
    <path id="c12003" d="m 791.13,464.53 4.0346,-0.247 0.57765,3.221 0.19433,0.514 0.36905,0.529 0.40828,0.321 0.13015,0.03 2.25,-0.435 0.31557,2.016 0.43146,2.958 -1.831,0.273 -6.1973,1.052 -1.4869,-10.172 0.80407,-0.06" inkscape:connector-curvature="0" style="stroke:#ffffff">
      <title id="title1165">Baker, FL</title>
    </path>
    <path id="c12031" d="m 799.41,470.48 3.5657,-4.965 1.6777,-2.275 0.41898,-0.401 0.20146,-0.113 1.3817,-0.593 2.2411,0.09 0.29774,0.04 1.2944,1.052 0.37797,0.25 0.34588,0.289 0.55447,1.807 0.23356,1.366 0.21573,0.82 0.22464,0.653 0.18542,0.453 -1.1179,0.189 0.57943,3.326 -2.0664,0.353 -1.3175,-0.417 -0.45463,0 -1.0715,0.449 -0.22642,-1.576 -0.61687,0.08 -0.54734,0.121 -4.1131,0.683 -1.9772,0.288 -0.28704,-1.968" inkscape:connector-curvature="0" style="stroke:#ffffff">
      <title id="title1168">Duval, FL</title>
    </path>
    <path id="c12089" d="m 809.76,458.78 0.72384,4.534 -1.2944,-1.052 -0.29774,-0.04 -2.2411,-0.09 -1.3817,0.593 -0.20146,0.113 -0.41898,0.401 -1.6777,2.275 -3.5657,4.965 -0.31557,-2.016 0.10341,-1.592 0.10519,-1.573 -0.0143,-1.537 -0.25852,-0.706 -0.60261,-0.788 -0.30665,-0.465 -0.0874,-0.474 0.17116,-2.484 2.1501,-1.253 0.83617,0.563 3.063,0.658 2.3124,0.257 1.223,-0.06 1.6723,-0.201 0.30309,-0.03" inkscape:connector-curvature="0" style="stroke:#ffffff">
      <title id="title1171">Nassau, FL</title>
    </path>
    </g>
  </svg>
